<?xml version="1.0" standalone="no"?>
<!DOCTYPE svg PUBLIC "-//W3C//DTD SVG 20010904//EN"
 "http://www.w3.org/TR/2001/REC-SVG-20010904/DTD/svg10.dtd">
<svg version="1.0" xmlns="http://www.w3.org/2000/svg"
 width="512.000000pt" height="512.000000pt" viewBox="0 0 512.000000 512.000000"
 preserveAspectRatio="xMidYMid meet">
<metadata>
Created by potrace 1.11, written by Peter Selinger 2001-2013
</metadata>
<g transform="translate(0.000000,512.000000) scale(0.100000,-0.100000)"
fill="#000000" stroke="none">
<path d="M1 3923 c1 -743 5 -1164 10 -1108 100 1038 845 1926 1848 2201 246
67 306 74 681 74 291 0 351 -3 446 -20 986 -178 1775 -915 2017 -1885 58 -232
71 -349 71 -615 0 -266 -13 -383 -71 -615 -227 -910 -938 -1621 -1848 -1848
-232 -58 -349 -71 -615 -71 -266 0 -383 13 -615 71 -1040 259 -1812 1154
-1914 2218 -5 56 -9 -370 -10 -1117 l-1 -1208 2560 0 2560 0 0 2560 0 2560
-2560 0 -2560 0 1 -1197z"/>
<path d="M700 2545 l0 -1045 240 0 240 0 0 380 0 380 485 0 485 0 0 195 0 195
-485 0 -485 0 2 278 3 277 548 3 547 2 0 190 0 190 -790 0 -790 0 0 -1045z"/>
<path d="M2540 2544 l0 -1045 578 4 c548 4 582 5 674 26 435 97 722 359 820
748 20 76 23 113 22 278 0 161 -4 202 -22 267 -115 417 -430 683 -892 753 -74
12 -216 15 -637 15 l-543 0 0 -1046z m1143 628 c117 -32 211 -85 293 -167 122
-120 174 -258 174 -460 0 -232 -76 -396 -238 -515 -148 -109 -247 -130 -618
-130 l-274 0 0 643 c0 354 3 647 8 651 4 5 135 6 292 3 248 -4 295 -7 363 -25z"/>
</g>
</svg>
